<mxfile host="app.diagrams.net" modified="2021-05-23T02:58:05.236Z" agent="5.0 (X11)" etag="BlFiivp7YFdYA33biASE" version="14.7.0" type="github">
  <diagram id="C5RBs43oDa-KdzZeNtuy" name="Page-1">
    <mxGraphModel dx="981" dy="554" grid="1" gridSize="10" guides="1" tooltips="1" connect="1" arrows="1" fold="1" page="1" pageScale="1" pageWidth="827" pageHeight="1169" math="0" shadow="0">
      <root>
        <mxCell id="WIyWlLk6GJQsqaUBKTNV-0" />
        <mxCell id="WIyWlLk6GJQsqaUBKTNV-1" parent="WIyWlLk6GJQsqaUBKTNV-0" />
        <mxCell id="My9pA8nUvfVw367i8a78-0" value="game" style="swimlane;fontStyle=0;childLayout=stackLayout;horizontal=1;startSize=26;fillColor=#008a00;horizontalStack=0;resizeParent=1;resizeParentMax=0;resizeLast=0;collapsible=1;marginBottom=0;strokeColor=#005700;fontColor=#ffffff;" vertex="1" parent="WIyWlLk6GJQsqaUBKTNV-1">
          <mxGeometry x="600" y="138" width="160" height="208" as="geometry">
            <mxRectangle x="10" y="190" width="60" height="26" as="alternateBounds" />
          </mxGeometry>
        </mxCell>
        <mxCell id="My9pA8nUvfVw367i8a78-2" value="primary_id: integer" style="text;align=left;verticalAlign=top;spacingLeft=4;spacingRight=4;overflow=hidden;rotatable=0;points=[[0,0.5],[1,0.5]];portConstraint=eastwest;fillColor=#f5f5f5;strokeColor=#666666;fontColor=#333333;" vertex="1" parent="My9pA8nUvfVw367i8a78-0">
          <mxGeometry y="26" width="160" height="26" as="geometry" />
        </mxCell>
        <mxCell id="My9pA8nUvfVw367i8a78-6" value="name: varchar(500)" style="text;align=left;verticalAlign=top;spacingLeft=4;spacingRight=4;overflow=hidden;rotatable=0;points=[[0,0.5],[1,0.5]];portConstraint=eastwest;fillColor=#f5f5f5;strokeColor=#666666;fontColor=#333333;" vertex="1" parent="My9pA8nUvfVw367i8a78-0">
          <mxGeometry y="52" width="160" height="26" as="geometry" />
        </mxCell>
        <mxCell id="My9pA8nUvfVw367i8a78-3" value="description: varchar" style="text;align=left;verticalAlign=top;spacingLeft=4;spacingRight=4;overflow=hidden;rotatable=0;points=[[0,0.5],[1,0.5]];portConstraint=eastwest;fillColor=#f5f5f5;strokeColor=#666666;fontColor=#333333;" vertex="1" parent="My9pA8nUvfVw367i8a78-0">
          <mxGeometry y="78" width="160" height="26" as="geometry" />
        </mxCell>
        <mxCell id="My9pA8nUvfVw367i8a78-8" value="year: integer" style="text;align=left;verticalAlign=top;spacingLeft=4;spacingRight=4;overflow=hidden;rotatable=0;points=[[0,0.5],[1,0.5]];portConstraint=eastwest;fillColor=#f5f5f5;strokeColor=#666666;fontColor=#333333;" vertex="1" parent="My9pA8nUvfVw367i8a78-0">
          <mxGeometry y="104" width="160" height="26" as="geometry" />
        </mxCell>
        <mxCell id="My9pA8nUvfVw367i8a78-7" value="publisher: varchar" style="text;align=left;verticalAlign=top;spacingLeft=4;spacingRight=4;overflow=hidden;rotatable=0;points=[[0,0.5],[1,0.5]];portConstraint=eastwest;fillColor=#f5f5f5;strokeColor=#666666;fontColor=#333333;" vertex="1" parent="My9pA8nUvfVw367i8a78-0">
          <mxGeometry y="130" width="160" height="26" as="geometry" />
        </mxCell>
        <mxCell id="My9pA8nUvfVw367i8a78-9" value="developer: varchar" style="text;align=left;verticalAlign=top;spacingLeft=4;spacingRight=4;overflow=hidden;rotatable=0;points=[[0,0.5],[1,0.5]];portConstraint=eastwest;fillColor=#f5f5f5;strokeColor=#666666;fontColor=#333333;" vertex="1" parent="My9pA8nUvfVw367i8a78-0">
          <mxGeometry y="156" width="160" height="26" as="geometry" />
        </mxCell>
        <mxCell id="My9pA8nUvfVw367i8a78-10" value="status: boolean" style="text;align=left;verticalAlign=top;spacingLeft=4;spacingRight=4;overflow=hidden;rotatable=0;points=[[0,0.5],[1,0.5]];portConstraint=eastwest;fillColor=#f5f5f5;strokeColor=#666666;fontColor=#333333;" vertex="1" parent="My9pA8nUvfVw367i8a78-0">
          <mxGeometry y="182" width="160" height="26" as="geometry" />
        </mxCell>
        <mxCell id="My9pA8nUvfVw367i8a78-26" style="edgeStyle=orthogonalEdgeStyle;rounded=0;orthogonalLoop=1;jettySize=auto;html=1;endArrow=ERmany;endFill=0;startArrow=ERmany;startFill=0;" edge="1" parent="WIyWlLk6GJQsqaUBKTNV-1" source="My9pA8nUvfVw367i8a78-11" target="My9pA8nUvfVw367i8a78-0">
          <mxGeometry relative="1" as="geometry" />
        </mxCell>
        <mxCell id="My9pA8nUvfVw367i8a78-11" value="subcategory" style="swimlane;fontStyle=0;childLayout=stackLayout;horizontal=1;startSize=26;fillColor=#008a00;horizontalStack=0;resizeParent=1;resizeParentMax=0;resizeLast=0;collapsible=1;marginBottom=0;strokeColor=#005700;fontColor=#ffffff;" vertex="1" parent="WIyWlLk6GJQsqaUBKTNV-1">
          <mxGeometry x="340" y="190" width="160" height="104" as="geometry" />
        </mxCell>
        <mxCell id="My9pA8nUvfVw367i8a78-12" value="primary_id: integer" style="text;align=left;verticalAlign=top;spacingLeft=4;spacingRight=4;overflow=hidden;rotatable=0;points=[[0,0.5],[1,0.5]];portConstraint=eastwest;fillColor=#f5f5f5;strokeColor=#666666;fontColor=#333333;" vertex="1" parent="My9pA8nUvfVw367i8a78-11">
          <mxGeometry y="26" width="160" height="26" as="geometry" />
        </mxCell>
        <mxCell id="My9pA8nUvfVw367i8a78-13" value="name: varchar (500)" style="text;align=left;verticalAlign=top;spacingLeft=4;spacingRight=4;overflow=hidden;rotatable=0;points=[[0,0.5],[1,0.5]];portConstraint=eastwest;fillColor=#f5f5f5;strokeColor=#666666;fontColor=#333333;" vertex="1" parent="My9pA8nUvfVw367i8a78-11">
          <mxGeometry y="52" width="160" height="26" as="geometry" />
        </mxCell>
        <mxCell id="My9pA8nUvfVw367i8a78-14" value="description: varchar" style="text;align=left;verticalAlign=top;spacingLeft=4;spacingRight=4;overflow=hidden;rotatable=0;points=[[0,0.5],[1,0.5]];portConstraint=eastwest;fillColor=#f5f5f5;strokeColor=#666666;fontColor=#333333;" vertex="1" parent="My9pA8nUvfVw367i8a78-11">
          <mxGeometry y="78" width="160" height="26" as="geometry" />
        </mxCell>
        <mxCell id="My9pA8nUvfVw367i8a78-27" style="edgeStyle=orthogonalEdgeStyle;rounded=0;orthogonalLoop=1;jettySize=auto;html=1;endArrow=none;endFill=0;startArrow=ERmany;startFill=0;" edge="1" parent="WIyWlLk6GJQsqaUBKTNV-1" source="My9pA8nUvfVw367i8a78-16" target="My9pA8nUvfVw367i8a78-11">
          <mxGeometry relative="1" as="geometry" />
        </mxCell>
        <mxCell id="My9pA8nUvfVw367i8a78-16" value="category" style="swimlane;fontStyle=0;childLayout=stackLayout;horizontal=1;startSize=26;fillColor=#008a00;horizontalStack=0;resizeParent=1;resizeParentMax=0;resizeLast=0;collapsible=1;marginBottom=0;strokeColor=#005700;fontColor=#ffffff;" vertex="1" parent="WIyWlLk6GJQsqaUBKTNV-1">
          <mxGeometry x="80" y="190" width="160" height="104" as="geometry">
            <mxRectangle x="80" y="190" width="80" height="26" as="alternateBounds" />
          </mxGeometry>
        </mxCell>
        <mxCell id="My9pA8nUvfVw367i8a78-17" value="primary_id: integer" style="text;align=left;verticalAlign=top;spacingLeft=4;spacingRight=4;overflow=hidden;rotatable=0;points=[[0,0.5],[1,0.5]];portConstraint=eastwest;fillColor=#f5f5f5;strokeColor=#666666;fontColor=#333333;" vertex="1" parent="My9pA8nUvfVw367i8a78-16">
          <mxGeometry y="26" width="160" height="26" as="geometry" />
        </mxCell>
        <mxCell id="My9pA8nUvfVw367i8a78-18" value="name: varchar (500)" style="text;align=left;verticalAlign=top;spacingLeft=4;spacingRight=4;overflow=hidden;rotatable=0;points=[[0,0.5],[1,0.5]];portConstraint=eastwest;fillColor=#f5f5f5;strokeColor=#666666;fontColor=#333333;" vertex="1" parent="My9pA8nUvfVw367i8a78-16">
          <mxGeometry y="52" width="160" height="26" as="geometry" />
        </mxCell>
        <mxCell id="My9pA8nUvfVw367i8a78-19" value="description: varchar" style="text;align=left;verticalAlign=top;spacingLeft=4;spacingRight=4;overflow=hidden;rotatable=0;points=[[0,0.5],[1,0.5]];portConstraint=eastwest;fillColor=#f5f5f5;strokeColor=#666666;fontColor=#333333;" vertex="1" parent="My9pA8nUvfVw367i8a78-16">
          <mxGeometry y="78" width="160" height="26" as="geometry" />
        </mxCell>
      </root>
    </mxGraphModel>
  </diagram>
</mxfile>
